<svg xmlns="http://www.w3.org/2000/svg"  viewBox="0 0 100 100" width="100px" height="100px"><path fill="#ffc7a3" d="M32.252,85.43c-5.667-4.588-5.713-8.081-8.379-16.209c-2.232,2.09-4.22,0.839-7.099-2.457 c-3.131-3.585-4.587-8.783-2.483-11.607c1.681-2.257,3.523-1.835,6.277,0.061c-0.766-4.933-0.313-9.636-0.313-13.609 c0-18.4,12.482-29.519,28.866-29.519S77.987,23.209,77.987,41.61c0,4.044,0.319,8.846-0.639,13.877 c0.639-2.39,5.07-3.187,6.826-0.83c2.104,2.824,1.436,9.247-1.695,12.832c-3.131,3.585-6.518,3.949-8.621,1.125 c-0.008-0.011-0.015-0.024-0.023-0.036c-1.924,8.813-3.293,12.089-8.383,16.852l-10.902,5.967H43.914L32.252,85.43z"/><path fill="#40396e" d="M79.266,52.064c0,0-4.206-3.413-6.491-6.573c0,0-39.224-2.401-42.364-22.384 C27.031,1.599,53.676,5.651,61.214,7.668C67.821,9.434,89.104,19.332,79.266,52.064z"/><path fill="#40396e" d="M35.138,26.136c0,0,0.555,5.716-10.092,18.793l-3.991,4.994l-2.113,1.632 c0,0-13.013-30.652,14.377-38.852L35.138,26.136z"/><path fill="none" stroke="#40396e" stroke-linecap="round" stroke-linejoin="round" stroke-miterlimit="10" stroke-width="3" d="M49.121,11.331c16.384,0,29.625,11.878,29.625,30.278c0,4.044-0.553,7.476-1.511,12.507c3.45-2.706,6.115-0.816,7.027,0.25 c2.289,2.676,1.271,9.538-1.861,13.123c-3.131,3.585-8.213,1.56-8.213,1.56c-0.008-0.011-2.651,22.468-24.784,22.468 s-25.343-22.48-25.351-22.468c0,0-4.228,1.988-7.359-1.597c-3.131-3.585-4.15-10.447-1.861-13.123 c0.912-1.065,3.266-2.394,6.113-0.231c-0.959-5.031-1.451-8.443-1.451-12.488C19.496,23.209,32.737,11.331,49.121,11.331"/><path fill="#40396e" d="M64.193,28.775c-8.398,0-21.746-0.001-30.143-0.001c-4.219,0-7.424,3.348-7.861,7.545 c-1.624,15.596-3.939,18.537-3.939,18.537s-4.202-3.051-1.356-0.888c-0.959-5.031-1.399-8.313-1.399-12.358 c0-18.4,13.241-30.278,29.625-30.278s29.625,11.878,29.625,30.278c0,4.044-0.44,7.327-1.399,12.358 c2.847-2.163-1.491,0.69-1.491,0.69s-2.535-3.563-4.677-18.264C70.571,32.218,68.412,28.775,64.193,28.775z"/><g><circle cx="62.808" cy="58" r="3" fill="#40396e"/></g><g><circle cx="35.808" cy="58" r="3" fill="#40396e"/></g><polygon fill="#f4665c" points="36,36 30,42 33,42 32,47 38,41.5 34.933,41.5"/><g><path d="M51.405,100.017c-16.938,0-26.505-10.822-30.313-22.122 c-0.366-0.064-0.74-0.148-1.111-0.249C19.888,77.621,21.107,78.036,21,78c-0.483-0.144,1.403-1.751,1-2 c-0.241-0.148-1.77-0.824-2-1h-1c-0.249-0.172-0.759-0.795-1-1c-0.5-0.425-1.561-0.496-2-1c-4.865-5.572-8.914-15.275-4.105-20.897 c0.748-0.874,1.624-1.608,2.588-2.185c-1.599-6.01-3.054-15.808,0.838-24.686c2.776-6.333,7.728-11.019,14.731-13.949 c2.808-4.12,8.526-8.295,20.174-8.295c6.837,0,12.659,1.415,14.281,1.849c6.336,1.695,14.884,6.658,19.875,15.507 c4.497,7.97,5.575,17.714,3.226,29.024c1.364,0.667,2.6,1.609,3.595,2.774c4.809,5.621,2.961,16.052-1.905,21.623 c-0.258,0.294-0.52,0.568-0.784,0.823c-0.127,0.121-0.231,0.214-0.338,0.305c-0.2,0.181-0.356,0.318-0.515,0.445 c-0.147,0.117-0.275,0.211-0.405,0.303c-0.172,0.13-0.311,0.231-0.448,0.324c-0.162,0.108-0.304,0.195-0.448,0.28 c-0.19,0.119-0.334,0.206-0.479,0.285c-0.155,0.086-0.318,0.167-0.484,0.247c-0.149,0.077-0.284,0.143-0.416,0.203 c-0.208,0.093-0.403,0.17-0.598,0.244l0.03-0.013c-0.131,0.055-0.254,0.104-0.378,0.146c-0.205,0.074-0.442,0.148-0.682,0.218 c-0.063,0.02-0.136,0.042-0.186,0.055c-0.277,0.077-0.551,0.142-0.822,0.199c-0.021,0.005-0.065,0.014-0.065,0.014 c-0.346,0.07-0.697,0.127-1.055,0.171C77.607,89.29,68.272,100.017,51.405,100.017z" opacity=".35"/><path fill="#f2f2f2" d="M49.405,98.017c-16.938,0-26.505-10.822-30.313-22.122c-0.366-0.064-0.74-0.148-1.111-0.249 c-0.093-0.025-0.206-0.061-0.313-0.097c-0.483-0.144-0.903-0.295-1.31-0.47c-0.144-0.061-0.306-0.14-0.468-0.228 c-0.352-0.167-0.725-0.353-1.128-0.602c-0.241-0.148-0.477-0.317-0.707-0.494l-0.104-0.075c-0.249-0.172-0.494-0.35-0.735-0.555 c-0.5-0.425-0.978-0.896-1.417-1.399c-4.865-5.572-6.713-16.003-1.904-21.625c0.748-0.874,1.624-1.608,2.588-2.185 c-1.599-6.01-3.054-15.808,0.838-24.686c2.776-6.333,7.728-11.019,14.731-13.949c2.808-4.12,8.526-8.295,20.174-8.295 c6.837,0,12.659,1.415,14.281,1.849c6.336,1.695,14.884,6.658,19.875,15.507c4.497,7.97,5.575,17.714,3.226,29.024 c1.364,0.667,2.6,1.609,3.595,2.774c4.809,5.621,2.961,16.052-1.905,21.623c-0.258,0.294-0.52,0.568-0.784,0.823 c-0.127,0.121-0.231,0.214-0.338,0.305c-0.2,0.181-0.356,0.318-0.515,0.445c-0.147,0.117-0.275,0.211-0.405,0.303 c-0.172,0.13-0.311,0.231-0.448,0.324c-0.162,0.108-0.304,0.195-0.448,0.28c-0.19,0.119-0.334,0.206-0.479,0.285 c-0.155,0.086-0.318,0.167-0.484,0.247c-0.149,0.077-0.284,0.143-0.416,0.203c-0.208,0.093-0.403,0.17-0.598,0.244l0.03-0.013 c-0.131,0.055-0.254,0.104-0.378,0.146c-0.205,0.074-0.442,0.148-0.682,0.218c-0.063,0.02-0.136,0.042-0.186,0.055 c-0.277,0.077-0.551,0.142-0.822,0.199c-0.021,0.005-0.065,0.014-0.065,0.014c-0.346,0.07-0.697,0.127-1.055,0.171 C75.607,87.29,66.272,98.017,49.405,98.017z"/><circle cx="36" cy="59" r="8.5" fill="none" stroke="#40396e" stroke-miterlimit="10" stroke-width="3"/><circle cx="63" cy="59" r="8.5" fill="none" stroke="#40396e" stroke-miterlimit="10" stroke-width="3"/><path fill="none" stroke="#40396e" stroke-miterlimit="10" stroke-width="3" d="M44.5,59.342c0.552-2.248,2.581-3.916,5-3.916 c2.32,0,4.281,1.534,4.925,3.643c0.042,0.137,0.078,0.275,0.108,0.416"/><path fill="#ffc7a3" d="M32.252,85.43c-5.667-4.588-5.713-8.081-8.379-16.209c-2.232,2.09-4.22,0.839-7.099-2.457 c-3.131-3.585-4.587-8.783-2.483-11.607c1.681-2.257,3.523-1.835,6.277,0.061c-0.766-4.933-0.313-9.636-0.313-13.609 c0-18.4,12.482-29.519,28.866-29.519S77.987,23.209,77.987,41.61c0,4.044,0.319,8.846-0.639,13.877 c0.639-2.39,5.07-3.187,6.826-0.83c2.104,2.824,1.436,9.247-1.695,12.832c-3.131,3.585-6.518,3.949-8.621,1.125 c-0.008-0.011-0.015-0.024-0.023-0.036c-1.924,8.813-3.293,12.089-8.383,16.852l-10.902,5.967H43.914L32.252,85.43z"/><path fill="#40396e" d="M79.266,52.064c0,0-4.206-3.413-6.491-6.573c0,0-39.224-2.401-42.364-22.384 C27.031,1.599,53.676,5.651,61.214,7.668C67.821,9.434,89.104,19.332,79.266,52.064z"/><path fill="#40396e" d="M35.138,26.136c0,0,0.555,5.716-10.092,18.793l-3.991,4.994l-2.113,1.632 c0,0-13.013-30.652,14.377-38.852L35.138,26.136z"/><path fill="#40396e" d="M49.405,93.017c-19.684,0-25.208-16.248-26.509-22.059c-2.103,0.381-5.044,0.099-7.332-2.52 c-3.359-3.847-4.883-11.563-1.87-15.085c1.158-1.354,3.1-2.236,5.26-1.81c-0.625-3.617-0.958-6.551-0.958-9.935 c0-18.414,13.09-31.778,31.125-31.778s31.125,13.365,31.125,31.778c0,3.226-0.32,5.997-0.988,9.801 c2.798-0.725,5.062,0.714,6.144,1.98c3.013,3.521,1.49,11.238-1.87,15.085c-2.557,2.925-6.057,2.841-8.142,2.449 C74.22,76.759,69.094,93.017,49.405,93.017z M24.061,67.55c0.111,0,0.222,0.012,0.33,0.037c0.597,0.138,1.055,0.653,1.149,1.258 c0.355,2.27,4.039,21.172,23.865,21.172c19.78,0,22.991-18.871,23.292-21.136c0.079-0.598,0.515-1.121,1.097-1.28 c0.316-0.085,0.647-0.066,0.95,0.054c0.162,0.064,4.148,1.573,6.527-1.153c2.856-3.271,3.484-9.25,1.851-11.161 c-0.475-0.553-2.23-2.188-4.962-0.044c-0.493,0.387-1.174,0.425-1.706,0.101c-0.534-0.325-0.811-0.948-0.693-1.562 c1.007-5.279,1.485-8.455,1.485-12.226c0-16.675-11.828-28.778-28.125-28.778S20.996,24.934,20.996,41.609 c0,3.984,0.5,7.364,1.424,12.207c0.116,0.61-0.155,1.229-0.684,1.556c-0.528,0.326-1.204,0.296-1.697-0.081 c-2.342-1.779-3.796-0.302-4.064,0.012c-1.635,1.911-1.007,7.891,1.85,11.162c2.327,2.663,5.468,1.282,5.601,1.222 C23.623,67.597,23.842,67.55,24.061,67.55z"/><path fill="#40396e" d="M64.193,28.775c-8.398,0-21.746-0.001-30.143-0.001c-4.219,0-7.424,3.348-7.861,7.545 c-1.624,15.596-3.939,18.537-3.939,18.537s-4.202-3.051-1.356-0.888c-0.959-5.031-1.399-8.313-1.399-12.358 c0-18.4,13.241-30.278,29.625-30.278s29.625,11.878,29.625,30.278c0,4.044-0.44,7.327-1.399,12.358 c2.847-2.163-1.491,0.69-1.491,0.69s-2.535-3.563-4.677-18.264C70.571,32.218,68.412,28.775,64.193,28.775z"/><circle cx="62" cy="58" r="3" fill="#40396e"/><circle cx="37" cy="58" r="3" fill="#40396e"/><polygon fill="#f4665c" points="36,36 30,42 33,42 32,47 38,41.5 34.933,41.5"/><path fill="#40396e" d="M36,69c-5.514,0-10-4.486-10-10s4.486-10,10-10s10,4.486,10,10S41.514,69,36,69z M36,52 c-3.859,0-7,3.14-7,7s3.141,7,7,7s7-3.14,7-7S39.859,52,36,52z"/><path fill="#40396e" d="M63,69c-5.514,0-10-4.486-10-10s4.486-10,10-10s10,4.486,10,10S68.514,69,63,69z M63,52 c-3.859,0-7,3.14-7,7s3.141,7,7,7s7-3.14,7-7S66.859,52,63,52z"/><path fill="#40396e" d="M53.066,59.799c-0.021-0.098-0.046-0.195-0.075-0.291c-0.472-1.546-1.875-2.583-3.491-2.583 c-1.686,0-3.143,1.141-3.543,2.773l-2.914-0.715c0.731-2.979,3.387-5.059,6.457-5.059c2.945,0,5.501,1.891,6.359,4.705 c0.054,0.176,0.101,0.356,0.141,0.54L53.066,59.799z"/><path fill="#ffc7a3" d="M32.252,85.43c-5.667-4.588-5.713-8.081-8.379-16.209c-2.232,2.09-4.22,0.839-7.099-2.457 c-3.131-3.585-4.587-8.783-2.483-11.607c1.681-2.257,3.523-1.835,6.277,0.061c-0.766-4.933-0.313-9.636-0.313-13.609 c0-18.4,12.482-29.519,28.866-29.519S77.987,23.209,77.987,41.61c0,4.044,0.319,8.846-0.639,13.877 c0.639-2.39,5.07-3.187,6.826-0.83c2.104,2.824,1.436,9.247-1.695,12.832c-3.131,3.585-6.518,3.949-8.621,1.125 c-0.008-0.011-0.015-0.024-0.023-0.036c-1.924,8.813-3.293,12.089-8.383,16.852l-10.902,5.967H43.914L32.252,85.43z"/><path fill="#40396e" d="M79.266,52.064c0,0-4.206-3.413-6.491-6.573c0,0-39.224-2.401-42.364-22.384 C27.031,1.599,53.676,5.651,61.214,7.668C67.821,9.434,89.104,19.332,79.266,52.064z"/><path fill="#40396e" d="M35.138,26.136c0,0,0.555,5.716-10.092,18.793l-3.991,4.994l-2.113,1.632 c0,0-13.013-30.652,14.377-38.852L35.138,26.136z"/><path fill="none" stroke="#40396e" stroke-linecap="round" stroke-linejoin="round" stroke-miterlimit="10" stroke-width="3" d="M49.121,11.331c16.384,0,29.625,11.878,29.625,30.278c0,4.044-0.553,7.476-1.511,12.507c3.45-2.706,6.115-0.816,7.027,0.25 c2.289,2.676,1.271,9.538-1.861,13.123c-3.131,3.585-8.213,1.56-8.213,1.56c-0.008-0.011-2.651,22.468-24.784,22.468 s-25.343-22.48-25.351-22.468c0,0-4.228,1.988-7.359-1.597c-3.131-3.585-4.15-10.447-1.861-13.123 c0.912-1.065,3.266-2.394,6.113-0.231c-0.959-5.031-1.451-8.443-1.451-12.488C19.496,23.209,32.737,11.331,49.121,11.331"/><path fill="#40396e" d="M64.193,28.775c-8.398,0-21.746-0.001-30.143-0.001c-4.219,0-7.424,3.348-7.861,7.545 c-1.624,15.596-3.939,18.537-3.939,18.537s-4.202-3.051-1.356-0.888c-0.959-5.031-1.399-8.313-1.399-12.358 c0-18.4,13.241-30.278,29.625-30.278s29.625,11.878,29.625,30.278c0,4.044-0.44,7.327-1.399,12.358 c2.847-2.163-1.491,0.69-1.491,0.69s-2.535-3.563-4.677-18.264C70.571,32.218,68.412,28.775,64.193,28.775z"/><g><circle cx="62.808" cy="58" r="3" fill="#40396e"/></g><g><circle cx="35.808" cy="58" r="3" fill="#40396e"/></g><polygon fill="#f4665c" points="36,36 30,42 33,42 32,47 38,41.5 34.933,41.5"/><circle cx="36" cy="59" r="8.5" fill="none" stroke="#40396e" stroke-miterlimit="10" stroke-width="3"/><circle cx="63" cy="59" r="8.5" fill="none" stroke="#40396e" stroke-miterlimit="10" stroke-width="3"/><path fill="none" stroke="#40396e" stroke-miterlimit="10" stroke-width="3" d="M44.5,59.342c0.552-2.248,2.581-3.916,5-3.916 c2.32,0,4.281,1.534,4.925,3.643c0.042,0.137,0.078,0.275,0.108,0.416"/><g><path fill="#ffc7a3" d="M32.252,85.43c-5.667-4.588-5.713-8.081-8.379-16.209c-2.232,2.09-4.22,0.839-7.099-2.457 c-3.131-3.585-4.587-8.783-2.483-11.607c1.681-2.257,3.523-1.835,6.277,0.061c-0.766-4.933-0.313-9.636-0.313-13.609 c0-18.4,12.482-29.519,28.866-29.519S77.987,23.209,77.987,41.61c0,4.044,0.319,8.846-0.639,13.877 c0.639-2.39,5.07-3.187,6.826-0.83c2.104,2.824,1.436,9.247-1.695,12.832c-3.131,3.585-6.518,3.949-8.621,1.125 c-0.008-0.011-0.015-0.024-0.023-0.036c-1.924,8.813-3.293,12.089-8.383,16.852l-10.902,5.967H43.914L32.252,85.43z"/><path fill="#40396e" d="M79.266,52.064c0,0-4.206-3.413-6.491-6.573c0,0-39.224-2.401-42.364-22.384 C27.031,1.599,53.676,5.651,61.214,7.668C67.821,9.434,89.104,19.332,79.266,52.064z"/><path fill="#40396e" d="M35.138,26.136c0,0,0.555,5.716-10.092,18.793l-3.991,4.994l-2.113,1.632 c0,0-13.013-30.652,14.377-38.852L35.138,26.136z"/><path fill="#40396e" d="M49.405,93.017c-19.684,0-25.208-16.248-26.509-22.059c-2.103,0.381-5.044,0.099-7.332-2.52 c-3.359-3.847-4.883-11.563-1.87-15.085c1.158-1.354,3.1-2.236,5.26-1.81c-0.625-3.617-0.958-6.551-0.958-9.935 c0-18.414,13.09-31.778,31.125-31.778s31.125,13.365,31.125,31.778c0,3.226-0.32,5.997-0.988,9.801 c2.798-0.725,5.062,0.714,6.144,1.98c3.013,3.521,1.49,11.238-1.87,15.085c-2.557,2.925-6.057,2.841-8.142,2.449 C74.22,76.759,69.094,93.017,49.405,93.017z M24.061,67.55c0.111,0,0.222,0.012,0.33,0.037c0.597,0.138,1.055,0.653,1.149,1.258 c0.355,2.27,4.039,21.172,23.865,21.172c19.78,0,22.991-18.871,23.292-21.136c0.079-0.598,0.515-1.121,1.097-1.28 c0.316-0.085,0.647-0.066,0.95,0.054c0.162,0.064,4.148,1.573,6.527-1.153c2.856-3.271,3.484-9.25,1.851-11.161 c-0.475-0.553-2.23-2.188-4.962-0.044c-0.493,0.387-1.174,0.425-1.706,0.101c-0.534-0.325-0.811-0.948-0.693-1.562 c1.007-5.279,1.485-8.455,1.485-12.226c0-16.675-11.828-28.778-28.125-28.778S20.996,24.934,20.996,41.609 c0,3.984,0.5,7.364,1.424,12.207c0.116,0.61-0.155,1.229-0.684,1.556c-0.528,0.326-1.204,0.296-1.697-0.081 c-2.342-1.779-3.796-0.302-4.064,0.012c-1.635,1.911-1.007,7.891,1.85,11.162c2.327,2.663,5.468,1.282,5.601,1.222 C23.623,67.597,23.842,67.55,24.061,67.55z"/><path fill="#40396e" d="M64.193,28.775c-8.398,0-21.746-0.001-30.143-0.001c-4.219,0-7.424,3.348-7.861,7.545 c-1.624,15.596-3.939,18.537-3.939,18.537s-4.202-3.051-1.356-0.888c-0.959-5.031-1.399-8.313-1.399-12.358 c0-18.4,13.241-30.278,29.625-30.278s29.625,11.878,29.625,30.278c0,4.044-0.44,7.327-1.399,12.358 c2.847-2.163-1.491,0.69-1.491,0.69s-2.535-3.563-4.677-18.264C70.571,32.218,68.412,28.775,64.193,28.775z"/><g><circle cx="62" cy="58" r="3" fill="#40396e"/></g><g><circle cx="37" cy="58" r="3" fill="#40396e"/></g></g><g><polygon fill="#f4665c" points="36,36 30,42 33,42 32,47 38,41.5 34.933,41.5"/></g><g><path fill="#40396e" d="M36,69c-5.514,0-10-4.486-10-10s4.486-10,10-10s10,4.486,10,10S41.514,69,36,69z M36,52 c-3.859,0-7,3.14-7,7s3.141,7,7,7s7-3.14,7-7S39.859,52,36,52z"/></g><g><path fill="#40396e" d="M63,69c-5.514,0-10-4.486-10-10s4.486-10,10-10s10,4.486,10,10S68.514,69,63,69z M63,52 c-3.859,0-7,3.14-7,7s3.141,7,7,7s7-3.14,7-7S66.859,52,63,52z"/></g><g><path fill="#40396e" d="M53.066,59.799c-0.021-0.098-0.046-0.195-0.075-0.291c-0.472-1.546-1.875-2.583-3.491-2.583 c-1.686,0-3.143,1.141-3.543,2.773l-2.914-0.715c0.731-2.979,3.387-5.059,6.457-5.059c2.945,0,5.501,1.891,6.359,4.705 c0.054,0.176,0.101,0.356,0.141,0.54L53.066,59.799z"/></g></g></svg>